<?xml version="1.0" standalone="no"?>
<!DOCTYPE svg PUBLIC "-//W3C//DTD SVG 20010904//EN"
 "https://www.w3.org/TR/2001/REC-SVG-20010904/DTD/svg10.dtd">
<svg version="1.0" xmlns="https://www.w3.org/2000/svg"
 width="1296.000000pt" height="1296.000000pt" viewBox="0 0 1296.000000 1296.000000"
 preserveAspectRatio="xMidYMid meet">
<metadata>
Created by potrace 1.14, written by Peter Selinger 2001-2017
</metadata>
<g transform="translate(0.000000,1296.000000) scale(0.100000,-0.100000)"
fill="#000000" stroke="none">
<path d="M5837 12954 c-1 -1 -81 -5 -177 -8 -96 -4 -191 -9 -210 -10 -19 -2
-72 -7 -117 -10 -45 -4 -90 -8 -100 -10 -10 -2 -54 -7 -98 -12 -44 -4 -82 -8
-85 -9 -3 -1 -36 -5 -75 -10 -38 -5 -72 -9 -75 -10 -8 -2 -91 -16 -125 -21
-573 -91 -1256 -321 -1714 -579 -56 -31 -112 -62 -124 -69 -45 -24 -235 -151
-312 -209 -188 -142 -389 -332 -535 -507 -154 -184 -346 -507 -411 -690 -12
-36 -27 -71 -32 -77 -5 -7 -7 -13 -3 -13 3 0 -1 -17 -9 -37 -8 -21 -21 -65
-29 -99 -166 -661 18 -1266 539 -1765 147 -141 350 -302 492 -388 l51 -32 -4
-262 c-2 -144 -6 -406 -9 -582 -4 -317 -16 -1103 -18 -1262 -1 -46 -2 -83 -3
-83 -1 0 -22 8 -46 18 -217 93 -448 65 -579 -69 -93 -96 -140 -234 -145 -429
-8 -359 156 -703 458 -961 34 -30 69 -60 76 -66 41 -39 200 -129 293 -166 l35
-14 3 -99 c2 -55 5 -133 7 -174 2 -41 6 -327 9 -635 6 -694 13 -1105 20 -1170
18 -178 51 -295 110 -385 36 -56 177 -242 209 -276 229 -243 416 -381 546
-404 75 -13 94 -17 134 -25 15 -3 53 -30 85 -62 147 -145 296 -247 530 -363
238 -118 365 -155 448 -131 23 7 35 4 54 -11 93 -74 398 -284 545 -375 210
-131 471 -260 650 -321 220 -76 394 -93 564 -57 14 3 38 8 53 10 41 8 200 62
287 97 96 40 393 191 427 218 14 11 29 20 34 20 20 0 366 231 526 352 50 38
100 69 110 69 10 0 45 0 78 -1 149 -1 358 86 613 255 105 69 249 182 322 252
39 38 51 43 91 43 208 0 484 210 784 595 202 260 217 354 231 1470 3 259 7
517 9 575 2 58 4 202 4 320 l1 216 82 38 c237 111 473 328 611 564 53 91 121
281 144 402 2 14 6 87 8 164 2 122 0 150 -22 230 -29 111 -70 186 -132 247
-44 42 -120 86 -163 94 -10 2 -23 7 -29 10 -6 4 -54 7 -107 7 -98 0 -230 -30
-303 -67 -16 -9 -30 -12 -30 -8 -2 13 -7 570 -14 1409 l-5 780 77 49 c43 27
80 52 83 56 3 4 30 24 60 45 147 100 345 279 477 429 69 78 63 71 117 146 25
35 51 70 56 76 46 55 159 291 206 428 13 37 55 230 60 275 14 120 7 289 -16
410 -25 130 -95 327 -156 435 -15 28 -36 65 -46 84 -122 217 -358 482 -648
725 -361 302 -943 626 -1540 856 -203 78 -516 185 -600 205 -8 2 -64 18 -125
35 -99 28 -393 102 -455 114 -14 2 -58 12 -97 20 -40 9 -87 18 -105 21 -18 3
-40 8 -48 10 -8 2 -31 6 -50 9 -19 3 -45 8 -56 10 -25 5 -71 13 -129 21 -22 3
-62 10 -90 15 -27 5 -72 11 -100 14 -27 3 -61 8 -75 10 -29 5 -113 15 -185 22
-27 3 -66 7 -85 9 -32 4 -105 10 -235 20 -158 11 -720 26 -728 19z"/>
</g>
</svg>
