<?xml version="1.0" encoding="UTF-8"?>
<!DOCTYPE svg PUBLIC "-//W3C//DTD SVG 1.1//EN" "http://www.w3.org/Graphics/SVG/1.1/DTD/svg11.dtd">
<svg xmlns="http://www.w3.org/2000/svg" xml:space="preserve" width="100%" height="100%" version="1.1" style="shape-rendering:geometricPrecision; text-rendering:geometricPrecision; image-rendering:optimizeQuality; fill-rule:evenodd; clip-rule:evenodd"
viewBox="0 0 16933 16933"
 xmlns:xlink="http://www.w3.org/1999/xlink">
 <defs>
  <style type="text/css">
   <![CDATA[
    .fil4 {fill:#008BC0}
    .fil5 {fill:#333142}
    .fil0 {fill:#B3DFEB}
    .fil3 {fill:#F5AA0A}
    .fil2 {fill:#FAB978}
    .fil7 {fill:#008BC0;fill-rule:nonzero}
    .fil6 {fill:#333142;fill-rule:nonzero}
    .fil1 {fill:white;fill-rule:nonzero}
   ]]>
  </style>
 </defs>
 <g id="Capa_x0020_1">
  <g id="_2367427499840">
   <g>
    <path class="fil0" d="M10231 7147c45,50 64,116 73,199 8,85 10,170 2,255 -6,62 -17,122 -35,177 -18,51 -41,98 -71,139 -36,48 -87,87 -148,117 -64,32 -138,54 -217,68 -92,12 -163,21 -258,17 -71,-2 -140,-10 -203,-23 -62,-13 -120,-31 -167,-54 -80,-38 -135,-85 -180,-146 -44,-59 -77,-130 -115,-220 -34,-79 -67,-166 -76,-249 -10,-91 9,-174 85,-233 11,-9 26,-18 42,-26 15,-9 33,-16 52,-24l108 -41 -56 101c-10,18 -18,37 -25,55 -6,18 -11,36 -14,54 -1,7 0,14 3,20 4,6 9,10 16,13 7,2 14,2 20,0 6,-2 12,-7 16,-13 29,-50 68,-96 111,-138 48,-46 102,-87 158,-122l7 -5 10 -1c116,-15 239,-24 352,-27 116,-3 220,1 294,11 103,14 171,46 216,96zm-536 210c0,0 -1,-1 -2,-1 -46,-6 -95,6 -142,28 -61,29 -117,74 -158,117 -42,43 -84,102 -110,164 -19,48 -29,97 -21,142l1 3 1 2c1,0 2,1 3,0 1,0 2,0 3,-1 35,-34 78,-62 124,-84 52,-24 108,-42 160,-52 52,-11 111,-16 168,-14 51,2 102,11 147,29 1,0 3,0 4,0 0,0 1,-1 2,-2 0,-1 1,-2 0,-3 0,-1 0,-2 -1,-3 -34,-30 -81,-48 -132,-57 -67,-11 -139,-7 -197,5 -21,4 -43,10 -67,18 -22,7 -44,16 -64,25l-148 70 95 -132c9,-13 20,-26 31,-40 11,-13 22,-26 34,-38 37,-39 81,-77 130,-108 43,-27 89,-49 137,-60 1,-1 2,-1 3,-2 0,-1 0,-2 0,-3 0,-1 0,-2 -1,-3zm-1865 -146c37,38 69,79 95,122 4,6 9,11 15,13 7,2 14,2 21,0 6,-3 12,-7 15,-13 3,-6 5,-13 4,-20 -3,-17 -8,-34 -13,-51 -6,-17 -14,-34 -23,-52l-47 -88 96 28c25,8 49,16 70,25 21,9 40,18 56,29 85,54 120,135 129,224 9,83 -6,171 -24,251 -19,91 -38,164 -69,224 -33,64 -79,114 -153,155 -124,70 -343,104 -551,86 -181,-16 -357,-72 -462,-179 -83,-84 -153,-278 -163,-288 -8,-25 -16,-51 -22,-77 -7,-26 -13,-54 -18,-82l-1 -6c-21,-115 -30,-205 -3,-275 29,-76 94,-123 220,-144 74,-13 184,-19 307,-19 118,0 248,6 370,19l10 2 9 6c47,33 92,70 132,110zm-393 189c-39,47 -67,114 -77,190l-3 31 -30 6c-25,5 -49,12 -71,22 -19,9 -36,20 -51,33 -1,1 -1,2 -2,3 0,1 1,2 1,3 1,1 2,2 2,2 1,0 2,0 3,0 46,-18 97,-27 148,-29 57,-2 115,3 168,14 52,10 108,28 160,52 46,22 89,50 124,84 1,1 2,1 3,1 1,1 2,0 3,0 1,-1 2,-2 2,-3 0,-1 0,-2 -1,-3 -4,-10 -10,-19 -16,-28 -6,-10 -14,-19 -23,-28l-19 -20 11 -25c3,-9 6,-19 8,-29 2,-10 3,-21 3,-31 0,-90 -25,-170 -66,-227 -38,-53 -90,-86 -145,-86 -50,0 -96,25 -132,68z"/>
    <path class="fil1" d="M9246 9020c1,0 1,1 3,1 16,5 34,8 52,9 19,1 40,-1 61,-4l48 -9 2 49c2,59 -2,115 -17,156 -17,45 -47,75 -94,77 -168,8 -323,-24 -458,-71 -134,-47 -247,-109 -331,-162l-96 -59 111 -18c8,-2 17,-4 28,-7 7,-1 14,-3 20,-4 70,-10 162,-24 244,-40 63,-12 120,-24 156,-36 61,-21 119,-44 174,-68 55,-25 109,-52 160,-80l49 -26 13 54c3,14 9,42 16,78 4,25 9,53 13,81l5 34 -33 12c-20,7 -41,13 -62,17 -20,4 -40,7 -60,9 -2,0 -3,0 -3,1 0,0 -1,1 -1,2l0 1c0,1 0,2 0,3zm-462 -3124l-518 -1c-61,1 -116,-24 -155,-64 -40,-40 -65,-95 -65,-155 0,-59 23,-112 61,-151 29,-31 68,-54 111,-64 9,-51 35,-97 71,-132 44,-43 104,-69 170,-69 66,0 127,26 171,69 35,34 60,79 70,129 25,5 48,18 66,36 14,14 25,32 32,51 42,4 81,23 110,51 31,32 51,76 51,124 0,49 -20,92 -51,124 -32,32 -76,52 -124,52zm-1222 1669c-29,17 -64,21 -97,10 -33,-12 -57,-38 -70,-70 -11,-30 -12,-65 0,-99l1 -2c12,-33 35,-59 62,-75 27,-15 59,-21 89,-12l1 0 7 2c33,12 58,38 70,70 11,29 12,65 0,99 -12,34 -35,61 -63,77z"/>
    <path class="fil2" d="M9686 6828c-106,11 -214,48 -298,91l-51 27 -53 6c-197,25 -335,62 -450,93 -80,21 -149,39 -220,49 -17,3 -36,5 -55,7 -18,2 -36,3 -53,4l-3 0c-19,0 -37,-1 -54,-2 -18,-2 -37,-3 -56,-5 -73,-9 -146,-25 -229,-44 -115,-26 -250,-56 -435,-76l-10 -1 -9 -6c-14,-9 -29,-18 -44,-27 -16,-9 -31,-18 -46,-25 -84,-43 -192,-80 -298,-91 -83,-8 -165,0 -232,34 -7,3 -12,8 -14,14 -3,6 -4,14 -1,21 0,3 2,6 4,9 2,2 4,5 6,6l85 62 -103 14c-53,8 -99,16 -143,23l-132 22 370 -468 32 19c370,222 844,332 1317,330 472,-2 943,-116 1309,-342l32 -19 333 421 -266 -30 14 -48c2,-7 2,-14 -1,-20 -3,-6 -8,-11 -14,-14 -68,-34 -149,-42 -232,-34zm-3302 820c1,35 10,74 27,110l3 5c0,-6 -1,-14 -6,-24 -15,-32 -19,-63 -13,-91 3,-19 11,-37 23,-52 11,-15 26,-27 44,-35 24,-11 54,-16 85,-10l31 6 3 31c8,60 14,127 19,198 6,69 10,144 14,222l4 62 -60 -20c-57,-20 -116,-55 -167,-99 -49,-41 -90,-91 -115,-142 -65,-139 -71,-243 -46,-316 15,-43 41,-76 72,-100 31,-23 67,-36 102,-40 59,-8 120,9 158,46l14 13 -2 103 -41 0c-34,0 -62,6 -83,16 -23,11 -39,27 -50,46 -11,20 -16,45 -16,71zm1975 623c1,1 1,2 2,3 37,39 91,70 149,90 60,21 123,30 175,24 53,-7 115,-33 171,-70 52,-34 98,-78 123,-124 1,-1 1,-2 1,-3 0,-1 -1,-2 -2,-3 -1,0 -2,-1 -3,-1 0,0 -1,1 -2,1 -38,32 -83,56 -130,75 -54,21 -111,34 -164,41 -53,7 -111,9 -168,2 -51,-6 -101,-18 -145,-39 -1,-1 -2,-1 -3,-1 -1,1 -2,1 -3,2 0,1 -1,2 -1,3zm725 -241c61,58 138,99 258,131l24 6 27 6 98 18 -82 58c-196,138 -404,276 -615,343 -218,68 -438,61 -649,-95l-1 -2c-25,-21 -56,-32 -88,-34 -31,-1 -62,7 -90,26 -65,45 -127,79 -187,104 -154,63 -291,63 -409,18 -118,-46 -217,-135 -297,-252 -49,-70 -90,-150 -126,-236l-61 -150 126 101c29,22 59,43 91,60 32,17 65,32 100,44 87,30 216,45 346,46 134,1 268,-13 356,-40 111,-35 178,-78 226,-136 49,-59 80,-136 117,-238 5,-12 10,-26 15,-43 44,-129 126,-370 276,-380l4 0c147,5 278,240 347,365 10,18 18,33 24,43 59,101 107,178 170,237zm1669 -560c35,74 36,185 -36,339 -24,51 -65,100 -114,142 -50,43 -109,78 -166,98l-57 20 1 -61c1,-76 3,-150 6,-219 3,-71 7,-138 13,-198l3 -29 28 -7c37,-11 72,-7 100,6 16,7 30,18 41,31 11,13 19,28 24,45 8,30 6,66 -11,102 -5,10 -6,18 -6,24l3 -5c18,-38 27,-79 26,-116 0,-25 -6,-48 -17,-67 -10,-18 -26,-34 -48,-44 -23,-11 -54,-17 -92,-16l-43 1 -1 -89 9 -12c36,-46 101,-69 166,-63 34,3 68,14 97,33l1 0c30,20 56,48 73,85z"/>
    <path class="fil3" d="M10219 6966l-341 -430 36 -26c35,-26 68,-53 99,-82 30,-27 58,-57 83,-87l8 -9 21 -8c33,-14 63,-28 91,-42 28,-14 58,-29 88,-45l62 -34 0 789 -136 -12 -11 -14zm-3111 -382l-359 453 -18 1 -30 2c-10,0 -20,0 -30,0l-43 0 0 -836 63 34c29,16 59,31 87,45 28,13 58,27 91,42l24 11 6 7c27,32 58,64 91,93 33,31 70,60 109,87l36 26 -27 35zm1674 2650c140,53 300,80 503,81 141,1 200,-83 217,-192 20,-121 -7,-272 -34,-383l-29 -119 96 75c10,8 21,12 33,12 12,-1 23,-5 33,-13 11,-9 17,-22 18,-35 1,-14 -3,-28 -12,-39 -15,-17 -30,-34 -46,-50 -17,-16 -34,-31 -53,-44 -19,-14 -37,-23 -56,-31 -21,-9 -45,-16 -74,-24 -14,-3 -28,-1 -40,6 -12,6 -21,17 -24,31 -3,10 -3,20 0,28 3,9 8,18 15,24l42 40 -51 28c-108,60 -215,107 -321,142 -105,36 -209,61 -312,78 -47,8 -94,14 -141,18 -48,4 -95,7 -141,9l-9 0c-60,2 -120,1 -180,-1 -61,-2 -121,-5 -179,-10 -14,-1 -28,4 -38,12 -10,9 -17,22 -18,36 -1,7 36,0 83,13 113,30 275,53 308,56l13 1 11 9c125,108 246,189 386,242zm1526 -746c-13,413 -25,786 -85,876 -51,75 -99,136 -150,186 -51,50 -103,89 -162,120l-64 34 2 -73c0,-9 0,-18 -1,-26 -39,65 -92,125 -154,177 -88,74 -197,134 -311,175l-52 18 -4 -55c-1,-7 -2,-14 -3,-21 -100,102 -223,179 -346,235 -188,85 -377,123 -481,123 -103,0 -293,-38 -480,-123 -124,-56 -247,-133 -346,-235 -2,7 -3,14 -3,21l-5 55 -52 -18c-114,-41 -222,-101 -311,-175 -62,-52 -115,-112 -153,-177 -2,8 -2,17 -2,26l2 73 -64 -34c-58,-31 -111,-70 -162,-120 -50,-50 -99,-111 -149,-186 -61,-90 -73,-462 -85,-876 -3,-79 -5,-160 -8,-244 -4,-109 -8,-218 -15,-330 -7,-109 -16,-218 -29,-328l-1 -11 62 -145 23 144c16,100 37,201 66,301 28,98 63,194 107,286 30,62 63,119 98,170 110,160 244,266 394,311 150,44 316,28 492,-57 49,-24 99,-53 150,-87l25 -18 24 19c512,388 1025,23 1476,-298l13 -10 14 1c88,3 180,-1 265,-11 77,-9 147,-24 197,-44 42,-17 81,-39 116,-65 35,-27 67,-58 94,-93l82 -107 -6 135c-8,158 -13,323 -18,481z"/>
    <path class="fil4" d="M7715 5487c-6,31 -9,62 -10,92l-2 31 -29 8c-148,40 -296,91 -445,154 -149,62 -297,135 -444,219l-22 12c-43,25 -90,51 -128,78l-49 36 -25 -21c-90,-74 -159,-152 -228,-229l-29 -32c-45,-50 -81,-101 -111,-151 -104,-180 -118,-364 -66,-540 52,-173 169,-337 328,-480 89,-80 191,-153 302,-218 860,-499 2080,-455 2968,-145 308,107 577,246 778,405 205,163 342,348 380,544 37,191 -19,390 -194,585 -39,42 -81,86 -129,128 -44,40 -92,78 -144,116l-24 17 -25 -17c-37,-26 -82,-52 -125,-76l-22 -12c-150,-85 -300,-159 -450,-222 -150,-63 -300,-114 -451,-155l-29 -8 -2 -30c-2,-30 -5,-60 -10,-90 -5,-30 -12,-59 -20,-89 -5,-16 -10,-23 -15,-24l-1 0c-2,1 -3,1 -4,3 -6,6 -9,19 -3,39 17,62 26,124 26,186 0,162 -60,318 -159,444 -99,125 -238,221 -397,267 -67,19 -137,29 -208,29 -72,0 -142,-10 -208,-29 -159,-45 -298,-141 -397,-266 -100,-126 -160,-281 -160,-444 0,-62 9,-124 27,-187 5,-20 3,-33 -4,-40 -1,-1 -2,-1 -3,-2l-2 0c-5,1 -11,8 -15,24 -9,30 -16,61 -20,90zm374 495c104,104 248,168 408,168 159,0 303,-64 407,-168 104,-105 169,-249 169,-408 0,-159 -65,-303 -169,-407 -104,-105 -248,-169 -407,-169 -160,0 -304,64 -408,169 -104,104 -169,248 -169,407 0,159 65,303 169,408z"/>
    <path class="fil0" d="M9681 6057c-128,-55 -263,-99 -404,-127l-47 -9 16 -46c10,-31 19,-63 26,-96 7,-32 12,-65 14,-99l5 -51 49 14c171,48 339,109 501,182 163,74 319,160 466,256l55 37 -56 35c-33,19 -68,39 -104,58 -36,19 -72,36 -108,52l-20 10 -20 -13c-120,-79 -244,-147 -373,-203zm-2381 6c-133,58 -260,130 -384,213l-18 11c-21,-7 -43,-15 -64,-23 -31,-14 -60,-28 -88,-44 -28,-14 -54,-30 -79,-46l-51 -33c19,-14 37,-29 56,-42 149,-100 307,-188 472,-264 164,-76 335,-139 509,-189l49 -14 5 51c3,33 7,66 14,97 7,33 16,64 27,95l16 46 -48 9c-145,29 -283,74 -416,133z"/>
    <path class="fil5" d="M6851 6225l42 15c251,-167 518,-292 815,-351 -23,-65 -37,-133 -43,-202 -346,98 -677,251 -970,447l-5 4c48,31 101,60 161,87zm1415 -372c-98,0 -178,-79 -178,-177 0,-95 75,-172 169,-177 3,-110 92,-197 202,-197 110,0 199,87 203,196 4,0 7,0 11,0 49,0 89,39 89,88 0,1 0,2 0,3 7,-1 14,-2 22,-2 73,0 133,60 133,133 0,74 -60,133 -133,133l-1 0 -517 0zm-245 1453c-6,-40 -20,-78 -40,-115 48,14 87,30 116,48 144,93 119,278 86,432 -38,175 -70,276 -201,350 -219,123 -752,129 -962,-86l-4 -3 -1 -2 -5 -5 0 0 -3 -3 -2 -2 -1 -2 -3 -3 0 0 -3 -4 -2 -1 -1 -2 -3 -4 0 0 -3 -4 -2 -1 -1 -2 -3 -4 0 0 -3 -4 -1 -1 -2 -2 -2 -4 -1 0 -3 -4 -1 -1 -1 -3 -3 -3 0 -1 -3 -4 -1 -1 -1 -3 -3 -3 0 -1 -3 -4 -1 -1 -1 -3 -3 -3 0 -1 -3 -4 0 -1 -2 -3 -2 -3 -3 -5 -1 -1 -3 -7 -1 0 0 -1 -3 -4 0 -1 -2 -3 -2 -4 0 -1 -3 -4 0 -1 -2 -3 -2 -3 0 -2 -3 -4 0 -1 -2 -3 -1 -4 -1 -1 -2 -4 -1 -1 -1 -4 -2 -3 -1 -1 -2 -5 0 -1 -2 -4 -1 -3 -1 -1 -2 -5 0 0 -2 -4 -1 -3 -3 -7 0 0 -2 -4 -1 -3 -1 -2 -2 -5 0 0 -2 -5 -1 -2 0 -2 -2 -5 0 -1 -2 -4 -1 -3 -1 -2 -2 -5 0 0 -1 -4 -1 -3 -1 -2 -2 -5 0 0 -2 -5 0 -3 -1 -2 -2 -5c-16,-50 -29,-101 -39,-153l0 0 -1 -6c-39,-217 -35,-334 183,-371 142,-24 420,-25 665,1 86,60 164,135 215,220 17,30 53,42 86,31 33,-12 52,-45 46,-80zm-288 -370c-31,-21 -63,-39 -94,-55 -159,-81 -399,-142 -568,-57 -32,16 -47,51 -37,84 5,16 14,29 27,39 -61,8 -117,18 -168,26l279 -352c754,451 1924,447 2670,-13l247 313c-36,-5 -75,-9 -115,-13 9,-33 -6,-68 -37,-84 -169,-85 -409,-24 -569,57 -14,8 -29,16 -44,24 -15,2 -30,4 -45,5 -334,43 -497,117 -671,143 -36,5 -71,8 -104,10 -34,-1 -69,-3 -106,-7 -173,-20 -345,-86 -665,-120zm-192 423c42,15 62,66 44,115 -17,48 -64,76 -106,61 -42,-15 -61,-66 -44,-115 17,-48 65,-76 106,-61zm28 -70c140,0 254,159 254,356 0,26 -6,53 -15,76 19,20 35,43 47,67 9,21 3,45 -15,58 -19,13 -44,11 -60,-4 -68,-66 -172,-107 -264,-126 -91,-18 -203,-21 -291,13 -21,8 -45,1 -57,-19 -12,-19 -8,-44 9,-59 38,-34 88,-55 141,-66 21,-168 125,-296 251,-296zm1651 526c-21,-121 62,-259 142,-343 80,-84 214,-174 336,-158 22,3 39,21 40,44 2,22 -13,42 -35,48 -92,22 -182,88 -247,156 -21,22 -41,47 -60,73 47,-22 96,-37 141,-46 113,-23 274,-20 365,62 17,15 21,40 9,59 -12,20 -36,27 -57,19 -88,-34 -200,-31 -291,-13 -92,19 -196,60 -264,126 -16,15 -41,17 -60,4 -10,-8 -17,-19 -19,-31l0 0zm-234 -509c7,-42 23,-83 44,-122 -34,13 -63,28 -83,43 -125,97 -62,281 4,433 74,174 128,274 274,344 90,43 218,69 353,73l0 0 4 0 8 1 4 0 4 0 0 0 8 0 4 0 4 0 4 0 3 0 4 0 4 0 4 0 12 0 4 0 4 0 8 -1 0 0 4 0 4 0 8 0 3 0 4 0 8 -1 4 0 4 0 4 -1 8 0 0 0 4 0 4 -1 4 0 4 0 3 -1 4 0 4 0 4 -1 4 0 4 -1 4 0 1 0 7 -1 4 0 3 -1 4 0 8 -1 4 -1 4 0 7 -1 4 -1 4 0 4 -1 4 -1 3 0 4 -1 4 -1 3 0 1 0c144,-26 271,-80 338,-170 57,-76 87,-180 98,-294l1 -2 0 -2 0 -2 0 -2 1 -4 0 -3 0 -2 0 -1 0 -1 0 -2 0 -2 1 -2 0 0 0 -3 0 -2 0 -4 0 -2 0 -3 1 -1 0 -1 0 -2 0 -2 0 -2 0 -1 0 -1 0 -3 0 -2 0 -2 0 0 0 -2 0 -2 1 -3 0 0 0 -2 0 -2 0 -2 0 -2 0 0 0 -3 0 -2 0 -2 0 -1 0 -1 0 -3 0 -2 0 -1 0 -1 0 -2 0 -2 0 -3 0 0 0 -2 0 -2 0 -2 0 -2 0 -3 0 -2 0 -2 0 0 0 -2 0 -3 0 -2 0 -1 0 -1 0 -2 0 -2 0 -3 0 0 0 -2 0 -2 0 -2 0 -2 0 -1 0 -2 0 -2 0 -2 0 -2 0 -2 0 -2 0 -1 -1 -2 0 -1 0 -1 0 -2 0 -2 0 -1 0 -2 0 -2 0 0 0 -2 0 -1 0 -2 0 -2 0 -2 0 -1 0 0 0 -2 0 -2 -1 -1 0 -2 0 -2 0 -1 0 -1 0 -1 0 -2 0 -2 0 -1 0 -2 0 0 0 -2 0 -1 0 -2 -1 -2 0 -1 0 -2 0 0 0 -2 0 -1 0 -2 0 -2 0 -1 0 -1 0 -1 -1 -1 0 -2 0 -2 0 -1 0 -2 0 0 0 -1 0 -2 0 -2 0 -1 -1 -2 0 -1 0 0 0 -2 0 -2 0 -1 0 -2 0 -1 0 -1 -1 -1 0 -1 0 -2 0 -1 0 -2 0 -1 0 0 -1 -2 0 -1c-16,-150 -67,-233 -253,-259 -141,-19 -402,-13 -635,16 -101,64 -197,148 -255,247 -18,30 -54,42 -86,31 -33,-12 -52,-45 -47,-80zm523 1424c56,230 112,628 -224,627 -417,-1 -659,-110 -917,-333l0 0c-52,-4 -434,-62 -429,-114 4,-52 49,-91 101,-87 118,9 236,14 355,11 3,0 6,0 8,0 92,-3 185,-12 278,-27 201,-32 406,-98 619,-215 -25,-23 -36,-58 -27,-93 13,-51 65,-81 115,-68 63,17 101,30 145,62 41,30 75,65 106,101 34,40 29,100 -11,133 -35,30 -85,30 -119,3zm-140 337c-46,8 -91,8 -133,-6 -49,-15 -40,-87 11,-91 37,-2 74,-10 111,-23 -10,-70 -23,-131 -29,-155 -104,56 -216,109 -341,150 -86,28 -282,61 -408,78 -20,5 -33,8 -46,10 165,103 442,243 765,227 60,-3 74,-91 70,-190zm-353 -853c-59,108 -211,201 -326,215 -115,15 -275,-37 -360,-126 -15,-16 -17,-41 -4,-59 13,-19 37,-25 58,-15 86,40 197,45 290,33 93,-12 199,-45 272,-106 17,-15 42,-15 59,0 18,14 22,39 11,58zm1236 -1275c25,3 49,5 72,7l0 -672c-58,31 -119,61 -183,90 -4,1 -8,3 -12,4 -54,64 -118,123 -190,176l313 395zm31 1066c-58,76 -135,134 -228,171 -111,45 -304,64 -478,58 -463,330 -990,706 -1527,298 -492,338 -942,173 -1196,-353 -91,-188 -144,-393 -176,-599l-1 1c27,219 36,441 44,661 18,496 21,1002 86,1098 99,147 186,235 296,293 -2,-59 21,-97 48,-114 73,179 263,322 474,398 3,-38 19,-81 47,-79 237,270 654,376 825,376 171,0 588,-106 826,-376 28,-2 43,41 46,79 211,-76 401,-219 475,-398 26,17 49,55 47,114 110,-58 198,-146 297,-293 75,-112 67,-776 95,-1335zm-898 209c-19,-3 -37,-7 -54,-12 -255,-68 -331,-179 -453,-387 -55,-93 -195,-383 -336,-387 -139,8 -219,301 -254,395 -78,211 -131,324 -371,399 -181,57 -543,57 -727,-6 -75,-25 -143,-63 -204,-111 168,408 483,674 956,348 72,-50 165,-43 228,10 397,294 828,25 1215,-249zm-2714 -1216c18,0 37,0 57,-2l347 -438c-80,-56 -150,-119 -208,-188 -7,-3 -13,-6 -15,-6 -63,-29 -124,-58 -181,-89l0 723zm3769 -792l8 1128c143,-74 366,-84 404,185 14,101 -5,211 -57,326 -63,138 -226,293 -374,344 -1,102 -2,205 -5,303 -13,436 13,829 -71,954 -91,135 -308,396 -478,374 -105,112 -399,319 -547,279 -233,182 -590,406 -823,406 -233,0 -589,-224 -822,-405 -46,12 -86,7 -129,-11 -169,-71 -295,-138 -419,-269l-112 -20 0 0c-153,-81 -263,-203 -365,-354 -84,-125 -46,-518 -59,-954 -3,-97 -7,-199 -11,-300 -150,-48 -318,-206 -382,-347 -52,-115 -71,-225 -57,-326 37,-262 251,-259 394,-190l16 -1124c-138,-86 -254,-181 -345,-283 -497,-554 -171,-1302 485,-1682 1593,-924 4337,7 4337,1114 0,200 -84,393 -241,568 -92,102 -208,198 -347,284zm-3868 1804c-8,-152 -18,-297 -33,-417 -75,-14 -129,50 -93,128l0 0c36,77 -37,131 -73,55l0 0c-63,-135 -37,-302 160,-303l0 -43c-99,-94 -397,-17 -219,361 45,94 157,183 258,219zm3877 -569l1 32c206,-5 235,166 170,303l0 0c-36,76 -109,22 -73,-55l0 0c38,-82 -23,-149 -105,-126 -12,120 -17,263 -19,414 101,-36 211,-124 256,-218 185,-393 -144,-461 -230,-350zm-1952 -2485c341,0 618,277 618,618 0,342 -277,619 -618,619 -342,0 -619,-277 -619,-619 0,-341 277,-618 619,-618zm788 933c288,57 548,176 792,336 74,-33 143,-70 207,-108 -290,-190 -616,-339 -955,-434 -6,71 -21,140 -44,206zm45 -315c304,81 608,208 911,380 49,28 105,58 151,91 105,-77 194,-158 265,-238 1009,-1124 -2163,-2319 -3878,-1324 -552,320 -866,853 -443,1324 77,86 153,175 252,256 6,-5 15,-11 22,-16 47,-33 104,-64 154,-93 299,-170 598,-295 899,-377 3,-63 13,-128 31,-192 28,-96 133,-54 105,41 -125,437 242,873 698,873 457,0 821,-439 697,-873 -27,-95 77,-136 104,-41 18,63 29,126 32,189z"/>
   </g>
   <g>
    <path class="fil6" d="M3226 12579c-157,34 -299,51 -425,51 -126,0 -227,-16 -302,-47 -76,-31 -135,-80 -178,-149 -43,-68 -73,-148 -89,-240 -17,-92 -25,-208 -25,-347 0,-292 41,-496 124,-611 82,-115 234,-172 455,-172 127,0 275,20 442,60l-9 245c-146,-23 -268,-34 -366,-34 -97,0 -166,13 -208,39 -41,26 -72,75 -92,148 -20,73 -30,197 -30,372 0,175 20,296 61,363 41,68 123,102 245,102 122,0 252,-11 390,-32l7 252zm236 24l0 -1557 298 0 0 1557 -298 0zm647 -986c79,-102 210,-153 394,-153 184,0 315,51 394,153 79,101 118,244 118,428 0,390 -171,585 -512,585 -341,0 -512,-195 -512,-585 0,-184 40,-327 118,-428zm231 679c30,54 84,80 163,80 79,0 133,-26 164,-80 30,-53 45,-137 45,-251 0,-114 -15,-197 -45,-249 -31,-52 -85,-78 -164,-78 -79,0 -133,26 -163,78 -31,52 -46,135 -46,249 0,114 15,198 46,251zm1549 -805l298 0 0 1112 -296 0 0 -62c-106,59 -199,89 -278,89 -154,0 -258,-43 -311,-128 -54,-85 -80,-228 -80,-428l0 -583 298 0 0 587c0,110 9,185 27,225 17,40 60,60 129,60 65,0 126,-10 184,-31l29 -9 0 -832zm1520 -445l0 1557 -296 0 0 -46c-104,49 -194,73 -269,73 -162,0 -275,-47 -339,-140 -63,-94 -95,-241 -95,-444 0,-202 38,-350 114,-443 77,-92 192,-139 346,-139 48,0 114,8 198,23l43 8 0 -449 298 0zm-330 1290l32 -6 0 -585c-82,-15 -155,-23 -218,-23 -121,0 -181,107 -181,321 0,115 14,198 40,247 27,49 71,73 133,73 61,0 126,-9 194,-27z"/>
    <path class="fil7" d="M8670 12579c-157,34 -299,51 -425,51 -126,0 -227,-16 -302,-47 -76,-31 -135,-80 -178,-149 -43,-68 -73,-148 -89,-240 -17,-92 -25,-208 -25,-347 0,-292 41,-496 124,-611 82,-115 234,-172 455,-172 127,0 275,20 442,60l-8 245c-147,-23 -269,-34 -366,-34 -98,0 -167,13 -208,39 -42,26 -73,75 -93,148 -20,73 -30,197 -30,372 0,175 21,296 61,363 41,68 123,102 245,102 122,0 253,-11 391,-32l6 252zm1075 -741l0 463c3,35 9,60 18,74 9,14 27,24 55,30l-9 225c-75,0 -136,-5 -181,-16 -45,-10 -91,-31 -137,-62 -107,52 -216,78 -327,78 -230,0 -345,-122 -345,-365 0,-118 32,-203 96,-252 64,-50 162,-79 294,-88l238 -18 0 -69c0,-46 -11,-77 -31,-95 -21,-17 -55,-25 -101,-25l-418 18 -9 -207c159,-43 310,-65 453,-65 143,0 246,30 309,89 63,60 95,155 95,285zm-501 294c-83,7 -124,52 -124,133 0,82 36,123 109,123 56,0 118,-9 184,-27l34 -9 0 -238 -203 18zm786 939l0 -1580 296 0 0 60c96,-58 180,-87 253,-87 150,0 260,45 332,135 71,90 106,242 106,457 0,215 -39,365 -117,448 -79,84 -208,126 -388,126 -49,0 -101,-4 -158,-13l-26 -5 0 459 -298 0zm491 -1340c-55,0 -110,11 -167,34l-26 11 0 583c66,9 121,13 162,13 86,0 145,-25 177,-76 32,-50 48,-136 48,-258 0,-204 -65,-307 -194,-307zm1335 14l-273 0 0 456c0,44 1,76 3,94 2,19 10,35 24,48 14,13 36,20 66,20l169 -4 13 238c-99,22 -175,33 -226,33 -134,0 -225,-30 -274,-90 -49,-60 -74,-171 -74,-333l0 -462 -131 0 0 -254 131 0 0 -309 299 0 0 309 273 0 0 254zm1046 93l0 463c3,35 9,60 18,74 9,14 27,24 55,30l-9 225c-75,0 -136,-5 -181,-16 -45,-10 -91,-31 -137,-62 -107,52 -216,78 -327,78 -230,0 -345,-122 -345,-365 0,-118 32,-203 96,-252 64,-50 162,-79 294,-88l238 -18 0 -69c0,-46 -11,-77 -31,-95 -21,-17 -55,-25 -101,-25l-418 18 -9 -207c159,-43 310,-65 453,-65 143,0 246,30 309,89 63,60 95,155 95,285zm-501 294c-83,7 -124,52 -124,133 0,82 36,123 109,123 56,0 118,-9 184,-27l34 -9 0 -238 -203 18zm786 471l0 -1112 298 0 0 1112 -298 0zm0 -1254l0 -303 298 0 0 303 -298 0zm872 1254l-298 0 0 -1112 296 0 0 62c100,-59 193,-89 278,-89 148,0 250,44 307,132 56,87 84,222 84,404l0 603 -298 0 0 -594c0,-95 -11,-165 -33,-210 -22,-45 -67,-68 -134,-68 -61,0 -119,11 -176,31l-26 9 0 832z"/>
   </g>
  </g>
 </g>
</svg>
