<?xml version="1.0" encoding="UTF-8"?>
<!DOCTYPE svg PUBLIC "-//W3C//DTD SVG 1.1//EN" "http://www.w3.org/Graphics/SVG/1.1/DTD/svg11.dtd">
<!-- Creator: CorelDRAW X8 -->
<svg xmlns="http://www.w3.org/2000/svg" xml:space="preserve" width="100%" height="100%" version="1.1" style="shape-rendering:geometricPrecision; text-rendering:geometricPrecision; image-rendering:optimizeQuality; fill-rule:evenodd; clip-rule:evenodd"
viewBox="0 0 16933 16933"
 xmlns:xlink="http://www.w3.org/1999/xlink">
 <defs>
  <style type="text/css">
   <![CDATA[
    .fil7 {fill:#008BC0}
    .fil8 {fill:#333142}
    .fil3 {fill:#B3DFEB}
    .fil6 {fill:#F5AA0A}
    .fil5 {fill:#FAB978}
    .fil2 {fill:white}
    .fil1 {fill:#008BC0;fill-rule:nonzero}
    .fil0 {fill:#333142;fill-rule:nonzero}
    .fil4 {fill:white;fill-rule:nonzero}
   ]]>
  </style>
 </defs>
 <g id="Capa_x0020_1">
  <metadata id="CorelCorpID_0Corel-Layer"/>
  <g id="_2367421736448">
   <g>
    <path class="fil0" d="M4696 9486c-163,36 -309,53 -439,53 -131,0 -235,-16 -313,-48 -78,-32 -139,-84 -184,-154 -44,-71 -75,-153 -92,-248 -17,-95 -25,-215 -25,-359 0,-302 43,-512 128,-631 85,-118 241,-178 470,-178 131,0 284,21 457,62l-9 253c-152,-23 -278,-34 -378,-34 -101,0 -172,13 -215,40 -43,27 -75,78 -96,153 -20,75 -31,203 -31,383 0,181 21,307 64,376 42,70 126,105 252,105 127,0 261,-11 404,-32l7 259zm243 26l0 -1609 308 0 0 1609 -308 0zm669 -1020c81,-105 217,-157 407,-157 190,0 325,52 407,157 81,105 122,253 122,443 0,403 -177,604 -529,604 -353,0 -529,-201 -529,-604 0,-190 41,-338 122,-443zm238 702c31,56 88,83 169,83 81,0 137,-27 169,-83 31,-55 47,-141 47,-259 0,-118 -16,-204 -47,-258 -32,-53 -88,-80 -169,-80 -81,0 -138,27 -169,80 -31,54 -47,140 -47,258 0,118 16,204 47,259zm1601 -832l308 0 0 1150 -306 0 0 -65c-110,62 -206,92 -287,92 -160,0 -267,-44 -322,-132 -55,-88 -83,-235 -83,-442l0 -603 308 0 0 607c0,114 9,191 28,232 18,42 63,62 133,62 68,0 131,-10 191,-32l30 -9 0 -860zm1569 -459l0 1609 -305 0 0 -49c-107,51 -200,76 -278,76 -167,0 -284,-48 -350,-145 -66,-96 -98,-249 -98,-458 0,-209 39,-362 118,-457 79,-96 198,-144 357,-144 49,0 117,8 205,23l44 9 0 -464 307 0zm-340 1333l33 -7 0 -604c-85,-16 -160,-23 -226,-23 -124,0 -186,110 -186,330 0,120 14,205 41,256 28,50 74,75 137,75 64,0 131,-9 201,-27z"/>
    <path class="fil1" d="M10320 9486c-163,36 -309,53 -439,53 -131,0 -235,-16 -313,-48 -78,-32 -139,-84 -184,-154 -44,-71 -75,-153 -92,-248 -17,-95 -25,-215 -25,-359 0,-302 42,-512 128,-631 85,-118 241,-178 470,-178 131,0 284,21 457,62l-9 253c-152,-23 -278,-34 -378,-34 -101,0 -172,13 -215,40 -43,27 -75,78 -96,153 -20,75 -31,203 -31,383 0,181 21,307 64,376 42,70 126,105 252,105 127,0 261,-11 404,-32l7 259zm1110 -765l0 478c3,37 9,63 18,77 9,15 28,25 58,31l-10 232c-78,0 -140,-5 -187,-16 -47,-11 -94,-32 -141,-64 -111,53 -223,80 -338,80 -238,0 -356,-125 -356,-377 0,-122 33,-209 98,-261 66,-51 167,-81 304,-90l246 -19 0 -71c0,-47 -11,-80 -32,-98 -22,-17 -56,-26 -104,-26l-432 18 -9 -213c164,-45 320,-67 468,-67 147,0 254,31 319,92 65,61 98,159 98,294zm-517 303c-86,8 -129,54 -129,138 0,85 37,127 112,127 59,0 122,-9 191,-28l35 -9 0 -246 -209 18zm811 970l0 -1632 306 0 0 63c99,-60 186,-90 262,-90 154,0 268,46 342,139 74,93 110,250 110,472 0,222 -40,377 -121,463 -82,87 -215,130 -400,130 -51,0 -105,-4 -164,-14l-27 -4 0 473 -308 0zm508 -1383c-57,0 -114,11 -173,34l-27 12 0 602c69,9 125,14 168,14 88,0 149,-26 182,-79 33,-52 50,-140 50,-266 0,-212 -67,-317 -200,-317zm1379 14l-283 0 0 471c0,46 1,78 4,97 2,19 10,36 25,50 14,14 37,20 68,20l174 -4 14 246c-103,23 -181,34 -234,34 -138,0 -232,-31 -283,-93 -51,-62 -76,-176 -76,-343l0 -478 -135 0 0 -263 135 0 0 -319 308 0 0 319 283 0 0 263zm1080 96l0 478c3,37 9,63 18,77 10,15 29,25 58,31l-9 232c-78,0 -141,-5 -188,-16 -46,-11 -94,-32 -141,-64 -110,53 -223,80 -338,80 -237,0 -356,-125 -356,-377 0,-122 33,-209 99,-261 66,-51 167,-81 303,-90l246 -19 0 -71c0,-47 -11,-80 -32,-98 -22,-17 -56,-26 -104,-26l-432 18 -9 -213c164,-45 320,-67 468,-67 148,0 254,31 319,92 65,61 98,159 98,294zm-517 303c-86,8 -129,54 -129,138 0,85 38,127 113,127 58,0 122,-9 191,-28l34 -9 0 -246 -209 18zm811 488l0 -1150 308 0 0 1150 -308 0zm0 -1297l0 -312 308 0 0 312 -308 0zm901 1297l-308 0 0 -1150 306 0 0 65c104,-61 200,-92 287,-92 153,0 259,45 317,136 59,90 88,229 88,418l0 623 -308 0 0 -614c0,-98 -12,-170 -35,-217 -23,-47 -69,-70 -138,-70 -63,0 -123,10 -181,32l-28 9 0 860z"/>
   </g>
   <path class="fil2" d="M1687 7698c-57,0 -103,-46 -103,-103 0,-54 43,-99 97,-102 2,-63 54,-114 118,-114 63,0 115,51 117,114 2,0 4,0 6,0 28,0 51,22 51,51 0,0 0,1 0,1 4,0 9,-1 13,-1 42,0 77,35 77,77 0,43 -35,77 -77,77l0 0 -299 0z"/>
   <g>
    <path class="fil3" d="M2822 8445c26,29 37,67 43,115 4,49 5,99 1,148 -4,36 -10,70 -21,102 -10,29 -23,57 -41,80 -21,28 -50,50 -85,68 -37,18 -80,31 -126,39 -53,7 -94,12 -149,10 -41,-1 -80,-6 -117,-13 -36,-8 -69,-19 -97,-32 -46,-22 -77,-49 -103,-84 -26,-34 -45,-75 -67,-127 -20,-45 -39,-96 -44,-144 -6,-52 5,-100 49,-134 7,-6 15,-11 25,-16 9,-4 19,-9 30,-13l62 -24 -32 58c-6,11 -11,22 -15,32 -3,10 -6,21 -8,31 -1,4 0,9 2,12 2,3 5,6 9,7 4,2 8,2 12,0 3,-1 7,-4 9,-7 17,-29 39,-56 64,-80 28,-27 59,-50 91,-71l5 -2 5 -1c67,-9 138,-14 203,-15 67,-2 128,0 170,6 60,8 99,26 125,55zm-309 122c-1,-1 -1,-1 -2,-1 -26,-3 -55,4 -81,16 -36,17 -68,43 -92,68 -24,25 -48,59 -63,95 -12,27 -17,56 -13,82l1 2 0 0c1,1 2,1 2,1 1,0 1,0 2,-1 20,-20 45,-36 72,-48 30,-14 62,-25 92,-31 30,-6 64,-9 97,-8 30,2 59,7 85,17 1,0 2,0 2,0 1,0 1,0 1,-1 1,-1 1,-1 1,-2 0,0 -1,-1 -1,-1 -20,-18 -47,-28 -76,-33 -39,-7 -80,-4 -114,2 -12,3 -25,6 -39,11 -13,4 -25,9 -37,15l-85 40 55 -77c5,-7 11,-15 18,-23 6,-7 12,-15 19,-22 21,-22 47,-44 75,-62 25,-16 52,-28 79,-35 1,0 2,0 2,-1 0,0 0,-1 0,-2 0,0 0,-1 0,-1zm-1078 -84c21,21 40,45 55,70 2,4 5,6 9,7 4,2 8,2 12,0 3,-1 7,-4 9,-7 1,-3 2,-7 2,-12 -2,-10 -5,-19 -8,-29 -3,-10 -8,-20 -13,-30l-27 -51 55 16c15,5 29,9 41,15 12,5 23,10 32,16 49,32 70,78 75,130 5,48 -4,99 -14,145 -11,53 -22,94 -40,129 -19,37 -46,66 -88,90 -72,40 -199,60 -319,49 -105,-9 -206,-41 -266,-103 -49,-48 -89,-161 -95,-166 -5,-15 -9,-30 -13,-45 -4,-15 -7,-31 -10,-47l-1 -4c-12,-66 -17,-118 -2,-159 17,-43 55,-71 128,-83 43,-7 106,-11 177,-11 68,0 143,4 214,11l6 1 5 4c27,19 53,40 76,64zm-227 109c-23,27 -39,65 -44,110l-2 17 -18 4c-14,3 -28,7 -40,12 -11,6 -21,12 -30,20 0,0 -1,1 -1,1 0,1 0,1 1,2 0,1 0,1 1,1 0,0 1,0 2,0 26,-10 55,-15 85,-17 33,-1 67,2 97,8 30,6 62,17 92,31 27,12 52,28 72,48 1,1 1,1 2,1 0,0 1,0 1,-1 1,0 1,-1 1,-1 1,-1 1,-1 0,-2 -2,-6 -6,-11 -9,-16 -4,-6 -8,-11 -13,-16l-11 -12 6 -14c2,-5 3,-11 5,-17 1,-6 1,-12 1,-18 0,-52 -14,-98 -38,-131 -22,-31 -52,-50 -84,-50 -28,0 -55,15 -76,40z"/>
    <path class="fil4" d="M2253 9527c0,0 1,1 2,1 9,3 19,5 30,5 11,1 23,0 35,-2l28 -5 1 28c1,34 -1,66 -10,90 -10,26 -27,43 -54,45 -97,4 -187,-14 -264,-42 -78,-27 -143,-63 -192,-93l-55 -34 64 -11c4,0 9,-2 16,-3 4,-1 8,-3 11,-3 41,-5 94,-14 142,-23 36,-7 69,-14 89,-21 36,-12 69,-25 101,-39 32,-14 63,-30 93,-46l28 -15 7 31c2,8 5,24 9,45 3,14 6,30 8,47l3 19 -19 7c-12,4 -24,8 -36,10 -11,3 -23,4 -35,5 -1,0 -1,0 -1,1 -1,0 -1,1 -1,1l0 0c0,1 0,2 0,2zm-267 -1805l-299 0c-35,0 -67,-14 -90,-37 -23,-23 -37,-54 -37,-90 0,-33 13,-64 35,-87 17,-18 39,-31 64,-36 6,-30 20,-57 41,-77 26,-25 60,-40 99,-40 38,0 73,15 98,40 20,20 35,46 41,75 14,3 27,10 38,20 8,9 14,19 18,30 25,2 47,13 64,29 18,19 29,44 29,72 0,28 -11,53 -29,72 -19,18 -44,29 -72,29zm-706 965c-17,9 -37,12 -56,5 -19,-6 -33,-21 -40,-40 -7,-17 -7,-37 0,-57l0 -1c7,-19 21,-34 36,-43 16,-9 34,-12 52,-8l0 0 5 2c19,7 32,22 40,40 6,17 7,38 0,57 -7,20 -21,36 -37,45z"/>
    <path class="fil5" d="M2507 8261c-61,6 -123,28 -172,52l-29 16 -31 4c-114,14 -193,35 -260,53 -46,12 -86,23 -127,29 -10,1 -21,3 -32,4 -10,1 -20,2 -30,2l-2 0c-11,0 -22,0 -31,-1 -11,-1 -22,-2 -33,-3 -42,-5 -84,-15 -132,-25 -66,-15 -144,-33 -251,-44l-6 -1 -5 -3c-8,-6 -17,-11 -26,-16 -9,-5 -18,-10 -26,-14 -49,-25 -111,-47 -173,-53 -47,-5 -95,0 -134,20 -3,2 -6,5 -8,8 -1,4 -2,8 0,12 0,2 1,3 2,5 1,1 3,3 4,4l49 35 -60 9c-30,4 -57,9 -82,13l-76 13 213 -271 19 11c214,129 487,192 761,191 272,-2 544,-67 756,-198l18 -11 193 243 -154 -17 8 -27c1,-4 1,-9 -1,-12 -1,-3 -4,-6 -8,-8 -39,-20 -86,-25 -134,-20zm-1907 474c0,20 6,42 16,63l1 3c0,-3 -1,-8 -3,-14 -9,-18 -11,-36 -8,-52 2,-11 7,-22 13,-30 7,-9 16,-16 26,-20 14,-7 31,-9 49,-6l18 3 2 18c4,35 8,74 11,115 3,39 5,83 8,128l2 36 -35 -12c-32,-12 -67,-32 -96,-57 -28,-24 -52,-53 -66,-82 -38,-80 -42,-140 -27,-183 9,-25 23,-44 41,-57 18,-14 39,-21 60,-24 34,-4 68,6 91,27l8 7 -1 60 -24 0c-20,0 -36,3 -48,9 -13,6 -23,16 -29,27 -6,12 -9,26 -9,41zm1141 360c0,0 0,1 1,1 21,23 52,41 86,53 34,12 71,17 101,13 31,-4 67,-19 99,-40 30,-20 56,-45 71,-72 0,0 1,-1 0,-1 0,-1 0,-2 -1,-2 0,0 -1,-1 -1,-1 -1,0 -1,1 -2,1 -21,18 -48,32 -75,43 -31,12 -64,20 -94,24 -31,4 -65,5 -98,1 -29,-3 -58,-11 -83,-23 -1,0 -2,0 -2,0 -1,0 -1,1 -2,1 0,1 0,1 0,2zm418 -139c36,33 80,57 150,75l13 4 16 3 57 11 -48 33c-113,80 -233,159 -355,198 -126,39 -253,36 -375,-55l-1 -1c-14,-12 -32,-18 -50,-19 -18,-1 -36,4 -52,15 -38,26 -74,45 -108,60 -89,36 -168,36 -237,10 -68,-26 -125,-78 -171,-146 -28,-40 -52,-86 -73,-136l-35 -86 73 58c16,13 34,24 52,34 19,10 38,19 58,26 50,17 125,26 200,26 77,1 154,-7 205,-23 65,-20 103,-45 131,-78 28,-34 46,-79 68,-138 2,-6 5,-15 9,-25 25,-74 72,-213 159,-219l2 0c85,3 160,139 200,211 6,10 11,19 14,25 35,58 62,103 98,137zm965 -324c20,43 21,107 -21,196 -14,29 -38,58 -66,82 -29,25 -63,45 -96,56l-33 12 1 -35c0,-44 1,-87 3,-127 2,-41 4,-79 8,-114l2 -17 16 -4c21,-6 41,-4 58,4 9,4 17,10 23,17 6,8 11,17 14,27 5,17 3,37 -6,58 -3,6 -4,11 -4,14l2 -3c10,-22 16,-45 15,-67 0,-14 -3,-27 -10,-39 -6,-10 -15,-19 -27,-25 -14,-6 -32,-10 -54,-9l-25 1 0 -52 5 -7c21,-26 59,-40 96,-36 20,2 39,8 56,19l0 0c18,11 33,28 43,49z"/>
    <path class="fil6" d="M2815 8341l-197 -249 21 -15c20,-15 40,-30 57,-47 18,-16 34,-33 48,-50l5 -6 12 -4c19,-8 37,-16 52,-24 17,-8 34,-17 51,-26l36 -20 0 456 -78 -7 -7 -8zm-1797 -221l-207 262 -11 1 -17 0c-6,1 -12,1 -18,1l-24 0 0 -483 36 19c17,9 34,18 50,26 16,8 34,16 53,24l14 7 3 4c16,19 34,37 53,54 19,18 40,34 63,50l21 15 -16 20zm967 1531c81,31 174,46 291,47 81,0 115,-48 125,-111 11,-70 -4,-157 -20,-222l-16 -68 55 43c6,5 12,7 19,7 7,0 14,-3 19,-7 6,-6 10,-13 11,-21 0,-8 -2,-16 -7,-22 -9,-10 -18,-20 -27,-29 -10,-9 -20,-18 -31,-26 -10,-7 -21,-13 -32,-18 -12,-5 -26,-9 -43,-13 -8,-2 -16,-1 -23,3 -7,4 -12,10 -14,18 -1,6 -1,12 0,17 2,5 5,10 9,13l24 23 -29 17c-63,34 -124,61 -185,82 -61,21 -121,35 -181,45 -27,4 -54,8 -82,10 -27,3 -54,4 -81,5l-5 0c-35,1 -69,1 -104,0 -35,-1 -70,-3 -103,-6 -9,-1 -16,2 -22,7 -6,5 -10,12 -11,21 0,4 21,0 48,7 66,17 159,31 178,32l8 1 6 5c72,63 142,109 223,140zm881 -431c-7,239 -14,454 -49,506 -29,44 -57,79 -86,107 -29,30 -60,52 -94,70l-37 19 2 -41c0,-6 -1,-11 -1,-16 -23,38 -53,72 -89,102 -51,43 -114,78 -180,101l-30 11 -2 -32c-1,-4 -1,-8 -2,-12 -57,59 -129,104 -200,136 -108,49 -218,71 -277,71 -60,0 -170,-22 -278,-71 -71,-32 -143,-77 -200,-136 -1,4 -1,8 -2,12l-2 32 -30 -11c-66,-23 -129,-58 -180,-101 -36,-30 -66,-64 -89,-101 0,4 -1,9 -1,15l2 41 -37 -19c-34,-18 -65,-40 -94,-70 -29,-28 -57,-63 -86,-107 -35,-52 -42,-267 -49,-506 -2,-46 -3,-92 -5,-141 -2,-63 -5,-126 -9,-191 -3,-63 -8,-126 -16,-189l-1 -6 36 -84 13 83c10,58 22,116 38,174 16,57 37,112 62,165 18,36 37,69 57,98 63,93 141,154 228,180 86,26 182,16 284,-33 28,-14 57,-30 86,-50l15 -10 14 10c295,225 592,14 852,-172l8 -5 8 0c51,2 104,0 153,-6 45,-6 85,-14 114,-26 24,-10 47,-22 67,-37 20,-16 38,-34 54,-54l48 -62 -4 78c-5,92 -8,187 -11,278z"/>
    <path class="fil7" d="M1368 7486c-3,18 -4,36 -5,54l-1 17 -17 5c-85,23 -171,53 -257,89 -86,36 -171,78 -257,126l-12 8c-25,14 -52,29 -74,45l-29 20 -14 -12c-52,-42 -92,-87 -132,-132l-16 -19c-26,-28 -47,-58 -65,-87 -60,-104 -68,-210 -37,-312 29,-100 97,-195 189,-277 51,-46 110,-89 174,-126 497,-288 1202,-263 1715,-84 178,62 333,142 449,234 119,95 198,202 220,315 21,110 -11,225 -112,337 -23,25 -47,50 -75,75 -25,22 -53,45 -83,66l-14 10 -14 -9c-22,-16 -48,-30 -72,-44l-13 -8c-87,-49 -173,-91 -260,-128 -87,-36 -174,-66 -261,-89l-17 -5 -1 -17c-1,-17 -3,-35 -5,-52 -3,-17 -7,-34 -12,-52 -3,-9 -6,-13 -9,-13l0 0c-1,0 -2,0 -2,1 -4,4 -6,11 -3,23 11,36 16,72 16,107 0,94 -35,184 -92,256 -57,73 -137,129 -230,155 -38,11 -78,17 -120,17 -41,0 -82,-6 -120,-17 -92,-26 -172,-82 -229,-154 -58,-72 -92,-162 -92,-256 0,-36 5,-72 15,-108 3,-12 2,-19 -2,-23 -1,-1 -2,-1 -2,-1l-1 0c-3,0 -6,4 -9,13 -5,18 -9,35 -12,52zm217 286c60,60 143,98 235,98 92,0 175,-38 236,-98 60,-60 97,-143 97,-235 0,-92 -37,-175 -97,-236 -61,-60 -144,-97 -236,-97 -92,0 -175,37 -235,97 -60,61 -98,144 -98,236 0,92 38,175 98,235z"/>
    <path class="fil3" d="M2504 7816c-74,-32 -151,-57 -233,-74l-27 -5 9 -27c6,-18 11,-36 15,-55 4,-19 7,-38 8,-57l3 -30 28 8c99,28 196,64 290,106 94,42 184,92 269,148l32 21 -33 20c-19,11 -39,23 -60,34 -20,11 -41,21 -62,30l-12 5 -11 -7c-69,-45 -141,-85 -216,-117zm-1375 3c-77,34 -150,75 -222,123l-10 7c-13,-5 -25,-9 -37,-14 -18,-8 -35,-16 -51,-25 -16,-8 -31,-18 -46,-27l-29 -19c11,-8 21,-16 32,-24 86,-58 177,-109 273,-153 95,-43 193,-80 294,-109l28 -8 3 30c2,19 4,38 8,56 4,19 9,37 16,54l9 27 -28 5c-84,17 -163,43 -240,77z"/>
    <path class="fil8" d="M870 7913l24 9c145,-97 299,-169 471,-203 -14,-38 -22,-77 -25,-117 -200,56 -392,145 -560,258l-4 3c28,17 59,34 94,50zm817 -215c-57,0 -103,-46 -103,-103 0,-54 43,-99 97,-102 2,-63 54,-113 118,-113 63,0 115,50 117,113 2,0 4,0 6,0 28,0 51,22 51,51 0,0 0,1 0,1 4,0 9,-1 13,-1 42,0 77,35 77,77 0,43 -35,77 -77,77l0 0 -299 0zm-141 839c-4,-23 -12,-45 -24,-66 28,8 51,17 67,28 83,53 69,160 50,249 -22,101 -41,160 -116,202 -127,72 -434,75 -556,-49l-2 -2 -1 -1 -3 -3 0 0 -1 -2 -1 -1 -1 -1 -2 -2 0 0 -2 -2 -1 -1 0 -1 -2 -2 0 0 -2 -2 -1 -1 -1 -1 -1 -2 0 -1 -2 -2 -1 -1 -1 -1 -1 -2 0 0 -2 -2 0 -1 -1 -2 -2 -2 0 0 -2 -2 0 -1 -1 -1 -2 -2 0 -1 -1 -2 -1 -1 -1 -1 -1 -2 0 -1 -2 -2 0 -1 -1 -1 -1 -2 -2 -3 -1 -1 -2 -3 0 -1 0 0 -1 -3 -1 0 -1 -2 -1 -2 0 -1 -1 -2 -1 -1 -1 -2 -1 -1 0 -1 -1 -3 -1 0 -1 -2 -1 -2 0 -1 -1 -2 -1 -1 -1 -2 0 -2 -1 -1 -1 -2 0 -1 -1 -2 -1 -2 0 0 -2 -3 0 -1 -1 -2 -1 -2 -1 -3 0 -1 -1 -2 -1 -2 0 -1 -1 -2 -1 -1 -1 -2 0 -2 -1 -1 -1 -3 0 0 -1 -2 0 -2 -1 -1 -1 -3 0 0 -1 -3 0 -1 -1 -2 -1 -2 0 -1 -1 -2 0 -2 -1 -1 -1 -3c-9,-29 -16,-58 -22,-88l0 -1 -1 -3c-22,-125 -20,-193 106,-214 82,-14 242,-14 384,1 49,34 95,77 124,126 10,18 31,25 50,18 19,-7 30,-26 27,-46zm-167 -214c-18,-12 -36,-22 -54,-31 -92,-47 -231,-82 -329,-33 -18,9 -26,29 -21,49 3,9 8,16 16,22 -36,5 -68,10 -97,15l161 -204c436,261 1112,259 1542,-7l143 181c-21,-3 -43,-5 -66,-8 5,-19 -4,-39 -22,-48 -97,-49 -236,-14 -328,33 -9,4 -17,9 -26,14 -8,1 -17,2 -26,3 -193,24 -287,67 -388,82 -20,3 -40,5 -60,6 -19,-1 -40,-2 -61,-4 -100,-12 -199,-50 -384,-70zm-111 245c24,8 36,38 26,66 -10,28 -38,44 -62,35 -24,-8 -35,-38 -25,-66 10,-28 37,-44 61,-35zm16 -40c81,0 147,91 147,205 0,15 -3,30 -9,44 11,12 21,25 27,39 6,12 2,26 -8,33 -11,8 -25,7 -35,-2 -39,-38 -99,-62 -152,-73 -53,-10 -117,-12 -169,8 -12,4 -25,0 -32,-11 -7,-11 -5,-26 5,-34 22,-20 51,-32 82,-38 11,-97 72,-171 144,-171zm954 303c-12,-70 36,-149 82,-198 46,-48 124,-100 194,-91 13,2 23,12 24,25 0,13 -8,25 -21,28 -53,13 -105,51 -142,90 -13,13 -24,27 -35,42 27,-12 55,-21 81,-27 66,-13 159,-11 211,37 10,8 12,23 5,34 -7,11 -20,15 -33,11 -51,-20 -115,-18 -168,-8 -53,11 -113,35 -152,73 -10,9 -24,10 -35,2 -6,-4 -10,-11 -11,-18l0 0zm-135 -294c4,-24 13,-48 26,-70 -20,7 -37,16 -49,25 -72,56 -35,162 2,250 44,100 75,158 159,198 52,25 126,40 204,43l0 0 2 0 5 0 2 0 2 0 1 0 4 0 2 0 2 0 3 0 2 0 2 0 3 0 2 0 7 0 2 0 2 0 5 0 0 0 2 0 2 0 5 0 2 -1 2 0 5 0 2 0 2 0 3 0 4 -1 0 0 3 0 2 0 2 0 2 0 3 0 2 -1 2 0 2 0 3 0 2 -1 2 0 0 0 5 0 2 -1 2 0 2 0 5 -1 2 0 2 0 5 -1 2 0 2 -1 2 0 2 0 3 -1 2 0 2 0 2 -1 0 0c83,-15 157,-46 196,-98 33,-44 50,-104 56,-169l1 -2 0 -1 0 -1 0 -1 0 -3 0 -1 0 -1 0 -1 0 -1 1 -1 0 -1 0 -1 0 0 0 -2 0 -1 0 -2 0 -2 0 -1 0 -1 0 0 0 -1 0 -2 0 -1 0 0 1 -1 0 -2 0 -1 0 -1 0 0 0 -1 0 -2 0 -1 0 0 0 -1 0 -1 0 -2 0 -1 0 0 0 -1 0 -1 0 -2 0 0 0 -1 0 -1 0 -2 0 0 0 -1 0 -1 0 -1 0 -2 0 0 0 -1 0 -1 0 -2 0 -1 0 -1 0 -1 0 -2 0 0 0 -1 0 -1 0 -2 0 0 0 -1 0 -1 0 -1 0 -2 0 0 0 -1 0 -1 0 -2 0 0 0 -1 0 -1 0 -1 0 -2 0 -1 0 -1 0 -1 0 -1 0 -1 0 -1 0 0 0 -1 0 -1 0 -1 0 -1 0 -1 0 0 0 -1 -1 -1 0 -1 0 -1 0 -1 0 -1 0 0 0 -1 0 -1 0 -1 0 -1 0 -1 0 -1 0 0 0 -1 0 -1 0 -1 0 -1 0 -1 0 0 0 -1 0 -1 0 -1 0 -1 0 -1 -1 0 0 -1 0 -1 0 -1 0 0 0 -1 0 -1 0 -1 0 0 0 -1 0 -1 0 -1 0 -1 0 -1 0 0 0 -1 0 -1 0 -1 0 -1 -1 -1 0 0 0 0 0 -1 0 -1 0 -1 0 -1 0 -1 0 0 0 -1 0 -1 0 -1 0 0 0 -1 -1 -1 0 0 0 -1 0 -1c-9,-86 -39,-134 -146,-149 -82,-11 -233,-8 -367,9 -58,37 -114,86 -147,142 -11,18 -31,25 -50,18 -19,-7 -30,-26 -27,-46zm302 823c32,133 65,363 -129,362 -241,-1 -381,-64 -530,-192l0 0c-30,-3 -251,-36 -248,-66 2,-30 29,-53 59,-50 68,5 136,8 205,6 1,0 3,0 4,0 54,-2 107,-7 161,-15 116,-19 234,-57 357,-125 -14,-13 -21,-34 -15,-54 7,-29 37,-46 66,-39 37,10 59,18 84,36 24,17 43,37 61,58 20,23 17,58 -6,77 -20,17 -49,17 -69,2zm-81 195c-26,4 -52,4 -77,-4 -28,-9 -23,-50 7,-52 21,-2 43,-6 64,-14 -6,-40 -13,-75 -17,-90 -60,33 -125,63 -197,87 -50,17 -163,35 -235,45 -12,3 -20,5 -27,6 95,60 255,140 442,131 34,-2 43,-52 40,-109zm-204 -493c-34,62 -121,116 -188,124 -66,9 -159,-21 -208,-73 -9,-9 -10,-23 -2,-34 7,-11 21,-14 33,-9 50,24 114,27 168,20 53,-7 115,-27 157,-62 10,-8 24,-8 34,0 10,9 13,23 6,34zm714 -737c15,2 29,3 42,4l0 -388c-34,18 -69,35 -106,52 -2,1 -5,2 -7,2 -31,37 -68,71 -110,102l181 228zm18 616c-33,44 -78,78 -131,99 -65,26 -176,37 -277,33 -267,191 -572,408 -882,173 -284,195 -544,99 -691,-204 -52,-109 -83,-228 -102,-346l0 0c16,126 21,255 25,382 11,286 13,579 50,634 57,85 108,136 171,169 -1,-34 12,-56 28,-65 42,103 152,186 274,230 2,-22 10,-47 27,-46 137,156 378,217 477,217 98,0 339,-61 476,-217 17,-1 25,24 27,46 122,-44 232,-127 274,-230 16,9 29,31 28,65 64,-33 114,-84 171,-169 44,-64 39,-448 55,-771zm-519 121c-11,-2 -21,-4 -31,-7 -147,-39 -191,-104 -262,-224 -31,-54 -112,-221 -194,-224 -80,6 -126,174 -146,229 -45,122 -76,187 -214,230 -105,33 -314,34 -421,-3 -43,-15 -82,-37 -117,-64 97,236 278,389 552,201 41,-29 95,-25 132,6 229,169 478,14 701,-144zm-1568 -703c11,0 22,0 33,-1l201 -253c-46,-32 -87,-69 -120,-109 -4,-1 -8,-3 -9,-3 -36,-16 -71,-34 -105,-52l0 418zm2178 -457l5 651c82,-42 211,-48 233,108 8,58 -3,121 -33,188 -36,79 -130,169 -216,198 0,59 -1,119 -3,175 -7,252 7,479 -41,552 -53,78 -178,228 -276,216 -61,64 -231,184 -316,161 -135,105 -341,234 -475,234 -135,0 -341,-129 -475,-234 -27,7 -50,4 -75,-6 -98,-41 -171,-80 -242,-155l-65 -12 0 0c-88,-47 -152,-117 -211,-204 -48,-73 -26,-300 -34,-552 -2,-56 -4,-114 -6,-173 -87,-27 -183,-119 -221,-200 -30,-67 -41,-130 -32,-188 21,-152 145,-150 227,-111l9 -649c-80,-50 -146,-105 -199,-163 -287,-320 -99,-752 280,-972 920,-534 2505,4 2505,643 0,116 -48,228 -139,329 -53,59 -120,114 -200,164zm-2235 1042c-4,-88 -10,-172 -18,-241 -44,-8 -75,29 -54,74l0 0c21,44 -22,75 -42,32l-1 0c-36,-78 -21,-175 93,-176l0 -24c-57,-55 -230,-10 -126,208 25,55 90,106 148,127zm2240 -329l0 19c120,-3 136,95 99,175l0 0c-21,43 -63,12 -42,-32l0 0c22,-47 -14,-86 -61,-73 -7,69 -10,152 -11,239 59,-20 122,-71 148,-126 107,-227 -83,-266 -133,-202zm-1128 -1436c198,0 358,160 358,358 0,197 -160,357 -358,357 -197,0 -357,-160 -357,-357 0,-198 160,-358 357,-358zm456 539c166,34 316,102 457,195 43,-19 83,-40 120,-63 -168,-109 -356,-195 -552,-250 -3,41 -12,81 -25,118zm26 -182c175,48 351,121 526,220 28,16 60,34 87,53 61,-44 112,-92 153,-138 583,-649 -1249,-1340 -2240,-765 -319,185 -500,493 -256,765 45,50 88,101 145,148 4,-3 9,-6 13,-9 27,-19 60,-37 89,-54 173,-98 346,-170 519,-218 2,-36 8,-73 19,-110 16,-56 76,-32 60,23 -72,253 140,505 403,505 264,0 475,-254 403,-505 -16,-55 45,-79 60,-24 11,37 17,73 19,109z"/>
   </g>
  </g>
 </g>
</svg>
